<svg xmlns="http://www.w3.org/2000/svg" shape-rendering="geometricPrecision" text-rendering="geometricPrecision" image-rendering="optimizeQuality" fill-rule="evenodd" clip-rule="evenodd" viewBox="0 0 512 499.39"><path fill-rule="nonzero" d="M459.09 40.3c30.61 30.61 43.51 72.99 39.62 116.71-.92 10.35-2.78 20.76-5.57 31.11a101.788 101.788 0 0 0-24.4-13.38 5.34 5.34 0 0 1 2.26-1.35c1.32-6.19 2.27-12.38 2.81-18.53.62-6.98.74-13.91.34-20.73l-23.02 23.01 17.59 17.59c-6.69-2.55-13.71-4.43-21-5.53l-4.32-4.32-3.45 3.45c-2.51-.19-5.05-.28-7.61-.28-2.65 0-5.28.09-7.87.29l11.2-11.2-17.61-17.6-24.05 24.05 8.79 8.8a101.61 101.61 0 0 0-11.3 4.16l-5.23-5.23-24.05 24.06.29.29c-2.66 2.49-5.19 5.12-7.58 7.89l-.44-.45-24.06 24.05 6.52 6.52c-1.46 3.82-2.7 7.74-3.7 11.77L322.7 234.9l-24.05 24.05 17.6 17.61 14.28-14.28c-.2 2.6-.3 5.23-.3 7.87 0 2.57.1 5.11.28 7.62l-6.52 6.52 8.84 8.84c3.34 14.55 9.8 27.9 18.62 39.34-11.57 3.37-23.24 5.58-34.81 6.61-18.81 1.68-37.36.24-54.84-4.37-1.23.66-2.57 1.17-4.01 1.48-22.74 4.98-44.5 13.15-65.36 24.07-9.93 5.21-19.69 11.05-29.3 17.48L50.82 496.52c-3.67 3.88-9.99 3.78-13.76 0L2.87 462.33c-3.76-3.77-3.89-10.08 0-13.75l118.74-112.27c6.37-9.52 12.18-19.23 17.36-29.1 10.98-20.89 19.16-42.54 24.15-65.01a15 15 0 0 1 1.66-4.27c-4.68-17.57-6.15-36.25-4.47-55.17 3.83-42.97 23.92-87.29 59.35-122.72C255.1 24.59 299.41 4.5 342.39.68c43.72-3.89 86.09 9.01 116.7 39.62zm-26.75 150.19c20.65 0 39.47 7.87 53.62 20.76-2.31 1.91-4.5 3.95-6.58 6.13-12.94 13.57-20.95 32.31-20.95 52.98h-.03v.05h.03c0 20.69 8.01 39.44 20.96 53.01 1.97 2.08 4.08 4.05 6.29 5.88-14.13 12.74-32.83 20.52-53.34 20.52-20.52 0-39.22-7.77-53.35-20.53 2.2-1.82 4.32-3.8 6.29-5.87 12.95-13.57 20.96-32.33 20.96-53.01h.04v-.05h-.04c0-20.67-8.01-39.41-20.94-52.98a76.158 76.158 0 0 0-6.59-6.13c14.15-12.89 32.98-20.76 53.63-20.76zm63.89 32.08c9.9 13.29 15.77 29.75 15.77 47.58 0 17.97-5.97 34.55-16 47.87a57.26 57.26 0 0 1-5.56-5.12c-10.36-10.86-16.78-25.89-16.78-42.49h.04v-.05h-.03c0-16.58 6.41-31.6 16.76-42.46 1.82-1.91 3.76-3.69 5.8-5.33zm-127.55 95.45c-10.04-13.32-16-29.9-16-47.87 0-17.83 5.87-34.3 15.77-47.58 2.05 1.64 3.98 3.42 5.79 5.33 10.35 10.86 16.76 25.88 16.77 42.46h-.03v.05h.03c0 16.61-6.42 31.64-16.78 42.5-1.73 1.81-3.6 3.53-5.55 5.1v.01zm-96.59-6.58-12.97-12.96-6.62 6.61c5.15 2.18 14.26 5.12 19.59 6.35zm-20.71-20.7-17.59-17.6-12.24 12.24a108.41 108.41 0 0 0 20.54 14.66l9.29-9.3zm-25.33-25.33-17.6-17.61-9.25 9.25c4.03 7.35 8.9 14.25 14.62 20.59l12.23-12.23zm-25.34-25.34-12.75-12.76c.9 3.88 1.97 7.7 3.24 11.44.54 1.09.96 2.24 1.22 3.44.56 1.49 1.14 2.96 1.75 4.42l6.54-6.54zm-9.87-25.34 17.61 17.61 24.06-24.06-17.61-17.6-24.06 24.05zm25.34 25.34 17.61 17.6 24.06-24.06-17.61-17.6-24.06 24.06zm25.34 25.34 17.6 17.6 24.06-24.06-17.6-17.6-24.06 24.06zm25.33 25.33 17.61 17.6 24.06-24.05-17.61-17.61-24.06 24.06zm67 18.88-17.6-17.59-22.5 22.49c6.82.4 13.75.28 20.73-.34 5.78-.51 11.58-1.37 17.39-2.57l1.98-1.99zM207.17 182.94l-17.59-17.59-1.3 1.3-.38.35c-1.25 5.98-2.16 11.96-2.68 17.91-.61 6.85-.73 13.65-.37 20.35l22.32-22.32zm-9.86-25.32 17.59 17.59 24.06-24.06-17.59-17.59-24.06 24.06zm25.33 25.32 17.6 17.6 24.05-24.05-17.6-17.6-24.05 24.05zm25.33 25.34 17.61 17.6 24.05-24.05-17.6-17.61-24.06 24.06zm25.35 25.33 17.59 17.61 24.05-24.06-17.6-17.59-24.04 24.04zm-59.69-107.78-7.28-7.28c-4.95 8.78-9.07 17.79-12.34 26.9l19.62-19.62zm-1.45-16.92 9.19 9.19 24.05-24.06-12.07-12.06a190.796 190.796 0 0 0-21.17 26.93zm16.92 16.92 17.59 17.59 24.05-24.05-17.59-17.59-24.05 24.05zm25.32 25.32 17.61 17.61 24.05-24.06-17.6-17.6-24.06 24.05zm25.34 25.34 17.6 17.61 24.05-24.05-17.6-17.61-24.05 24.05zm25.34 25.34 17.6 17.6 24.05-24.05-17.6-17.6-24.05 24.05zm162.35-76.47-17.6-17.61-24.06 24.05 17.61 17.61 24.05-24.05zm-25.34-25.34-17.59-17.61-24.06 24.06 17.6 17.6 24.05-24.05zm-25.33-25.34-17.6-17.6-24.06 24.05 17.6 17.61 24.06-24.06zm-25.33-25.34-17.61-17.6-24.06 24.05 17.61 17.61 24.06-24.06zm-5.86-21.32 13.59 13.59 7.06-7.07c-6.63-2.79-13.54-4.96-20.65-6.52zm21.32 21.32 17.61 17.61 12.75-12.76a109.255 109.255 0 0 0-20.59-14.61l-9.77 9.76zm25.34 25.34 17.6 17.6 9.82-9.82c-4.04-7.33-8.92-14.22-14.66-20.55l-12.76 12.77zm25.33 25.34 13.78 13.77c-1.59-7.21-3.79-14.21-6.63-20.92l-7.15 7.15zm-47.26 31.78-17.6-17.59-24.04 24.04 17.59 17.61 24.05-24.06zm-25.33-25.33-17.6-17.61-24.06 24.06 17.61 17.6 24.05-24.05zm-25.34-25.34-17.6-17.6L318 87.58l17.6 17.6 24.05-24.05zm-25.33-25.34L316.73 38.2l-24.06 24.06 17.59 17.59 24.06-24.06zm-9.86-25.32 17.59 17.59 22.84-22.84c-6.7-.37-13.5-.25-20.35.36-5.95.53-11.94 1.42-17.93 2.69l-.4.45-1.75 1.75zm54.08 133.12-17.6-17.6-24.06 24.06 17.61 17.59 24.05-24.05zm-25.33-25.34-17.61-17.6-24.05 24.05 17.6 17.61 24.06-24.06zm-25.34-25.33-17.61-17.6-24.05 24.05 17.6 17.6 24.06-24.05zm-25.34-25.34-17.59-17.59-24.05 24.05 17.59 17.59 24.05-24.05zm-25.32-25.32-9.31-9.3c-9.33 6.1-18.34 13.2-26.83 21.26l12.08 12.09 24.06-24.05zm.3-15.17 7.43 7.43 20.15-20.15c-9.35 3.35-18.59 7.6-27.58 12.72zM158.49 333.98l6.94 6.94c4.34-2.53 8.71-4.94 13.12-7.25 13.42-7.03 27.13-13.03 41.15-17.92-7-4.72-13.62-10.15-19.76-16.29a133.235 133.235 0 0 1-16.31-19.79c-4.93 14.22-10.97 28.05-18.06 41.54-2.26 4.29-4.61 8.55-7.08 12.77z"/></svg>